<svg xmlns="http://www.w3.org/2000/svg" viewBox="0 0 48 48" width="48" height="48">
  <defs>
    <linearGradient id="grad1" x1="0%" y1="0%" x2="100%" y2="100%">
      <stop offset="0%" style="stop-color:#6366f1;stop-opacity:1" />
      <stop offset="100%" style="stop-color:#8b5cf6;stop-opacity:1" />
    </linearGradient>
  </defs>
  <!-- Background circle -->
  <circle cx="24" cy="24" r="22" fill="url(#grad1)"/>
  <!-- AI brain/circuit icon -->
  <g fill="none" stroke="#ffffff" stroke-width="2" stroke-linecap="round" stroke-linejoin="round">
    <!-- Central node -->
    <circle cx="24" cy="24" r="4" fill="#ffffff"/>
    <!-- Connection lines -->
    <line x1="24" y1="20" x2="24" y2="12"/>
    <line x1="24" y1="28" x2="24" y2="36"/>
    <line x1="20" y1="24" x2="12" y2="24"/>
    <line x1="28" y1="24" x2="36" y2="24"/>
    <!-- Diagonal connections -->
    <line x1="21" y1="21" x2="15" y2="15"/>
    <line x1="27" y1="21" x2="33" y2="15"/>
    <line x1="21" y1="27" x2="15" y2="33"/>
    <line x1="27" y1="27" x2="33" y2="33"/>
    <!-- Outer nodes -->
    <circle cx="24" cy="12" r="2" fill="#ffffff"/>
    <circle cx="24" cy="36" r="2" fill="#ffffff"/>
    <circle cx="12" cy="24" r="2" fill="#ffffff"/>
    <circle cx="36" cy="24" r="2" fill="#ffffff"/>
    <circle cx="15" cy="15" r="2" fill="#ffffff"/>
    <circle cx="33" cy="15" r="2" fill="#ffffff"/>
    <circle cx="15" cy="33" r="2" fill="#ffffff"/>
    <circle cx="33" cy="33" r="2" fill="#ffffff"/>
  </g>
</svg>
